<?xml version="1.0" encoding="UTF-8"?><svg id="Layer_2" xmlns="http://www.w3.org/2000/svg" viewBox="0 0 517.17 797.87"><g id="Layer_1-2"><path d="m123.9,381.86c-1.93,0-3.78-.55-5.39-1.94-2.12-1.83-4.74-5.91-3.16-20.09.52-4.7,4.32-8.35,9.03-8.68l17.87-1.28c2.42-.17,4.78.39,6.87,1.61l16.88,9.96c1.74,1.03,2.75,2.92,2.64,4.93-.11,2.02-1.33,3.78-3.17,4.61l-18.55,8.3c-1.3.58-2.81.62-4.14.1l-6.68-2.59c-3.21,2.33-7.89,5.06-12.18,5.06m19.2-24.77c-.11,0-.22,0-.33.01l-17.87,1.28c-1.22.09-2.2,1.03-2.34,2.26-1.08,9.71.14,13.25.71,13.81.62.54,4.09-.09,9.26-4.04,1.48-1.13,3.48-1.42,5.21-.75l6.93,2.68,14.52-6.5-13.75-8.11c-.71-.42-1.51-.64-2.34-.64"/><path d="m80.13,634.62l-5.84-4.3c.55-.75,13.63-18.44,25.51-26.09l3.93,6.09c-10.74,6.93-23.47,24.12-23.6,24.3"/><path d="m437.85,637.82c-.17-.23-17.04-23.04-29.78-31.15l3.9-6.12c13.88,8.84,31,31.98,31.72,32.97l-5.84,4.3Z"/><path d="m257.28,511.85c-14.4,0-25.67-6.95-25.67-15.81s11.27-15.81,25.67-15.81,25.67,6.95,25.67,15.81-11.27,15.81-25.67,15.81m0-24.37c-10.54,0-18.42,4.52-18.42,8.56s7.88,8.56,18.42,8.56,18.42-4.52,18.42-8.56-7.88-8.56-18.42-8.56"/><path d="m407.36,560.23l-32.87-18.29-34.18,16.86,9.15-34.74-32.73-25.63h42.46s14.41-32.16,14.41-32.16l14.72,32.39h42.08l-33.11,25.38,10.05,36.18Zm-32.67-26.48l21.03,11.7-6.72-24.17,20.03-15.36h-25.37l-10.01-22.01-9.77,21.79h-26.12s19.92,15.6,19.92,15.6l-6.32,23.95,23.31-11.5Z"/><path d="m429.76,797.87H85.23c-2,0-3.63-1.62-3.63-3.63v-70.72c0-2,1.61-3.62,3.61-3.62l344.53-1.82h.02c.96,0,1.88.38,2.56,1.06.69.68,1.07,1.6,1.07,2.57v72.53c0,2-1.62,3.63-3.63,3.63m-340.91-7.25h337.28v-65.26l-337.28,1.77v63.49Z"/><path d="m430.44,741.94c-.85,0-1.7-.25-2.43-.75-1.18-.8-1.88-2.13-1.88-3.56v-13.48l-59.84-24.26v21.82h-7.25v-26.75c0-1.71,1.01-3.27,2.59-3.95l123.49-54.03c1.68-.74,3.65-.32,4.89,1.03,1.25,1.35,1.5,3.35.63,4.97l-25.5,47.11,24.83,22.13c1.13,1.01,1.64,2.5,1.37,3.98-.26,1.48-1.27,2.7-2.67,3.25l-56.66,22.2c-.51.2-1.04.3-1.57.3m-58.44-47.56l58.69,23.79c1.64.66,2.69,2.23,2.69,4v11.15l48.18-18.88-22.99-20.49c-1.5-1.33-1.88-3.5-.92-5.27l22.53-41.63-108.18,47.33Zm91.4-5.85h0s0,0,0,0"/><path d="m85.23,742.26c-.45,0-.9-.08-1.33-.25l-57.36-22.56c-1.41-.55-2.41-1.77-2.67-3.27-.26-1.49.26-2.98,1.4-3.98l25.02-22.12-25.62-47.07c-.88-1.63-.63-3.63.61-4.99,1.25-1.35,3.22-1.77,4.91-1.03l123.58,54.19c1.32.58,2.17,1.88,2.17,3.32v27.2h-7.25v-21.82l-59.84,24.26v14.48c0,1.2-.59,2.32-1.59,3-.61.42-1.32.63-2.04.63m-51.56-27.8l47.94,18.85v-11.6c0-1.48.89-2.81,2.26-3.36l59.12-23.97-107.84-47.29,22.88,42.06c.81,1.49.48,3.33-.78,4.45l-23.59,20.86Zm-3.59,3.17h0s0,0,0,0m-.88-4.93h0,0"/><path d="m109.45,736.52c8.15,0,12.28,9.77,12.28,20.29s-4.13,20.29-12.28,20.29-12.28-9.77-12.28-20.29,4.13-20.29,12.28-20.29m0,36.24c6.25,0,8.87-8.14,8.87-15.95s-2.62-15.95-8.87-15.95-8.87,8.14-8.87,15.95,2.62,15.95,8.87,15.95"/><polygon points="125.78 737.44 130.45 737.44 138.54 770 146.65 737.44 151.32 737.44 151.32 776.18 148.09 776.18 148.09 743.95 148.01 743.95 140.01 776.18 137.1 776.18 129.09 743.95 129.02 743.95 129.02 776.18 125.78 776.18 125.78 737.44"/><polygon points="156.77 737.44 160.4 737.44 173.9 768.86 173.97 768.86 173.97 737.44 177.21 737.44 177.21 776.18 173.47 776.18 160.07 745.09 160 745.09 160 776.18 156.77 776.18 156.77 737.44"/><rect x="182.69" y="737.44" width="3.41" height="38.74"/><path d="m198.64,737.44h3.77l10.02,38.74h-3.77l-2.8-11.67h-10.85l-2.87,11.67h-3.52l10.02-38.74Zm-2.55,22.73h8.69l-4.28-18.07h-.07l-4.34,18.07Z"/><rect x="224.7" y="737.44" width="3.41" height="38.74"/><polygon points="233.64 737.44 237.27 737.44 250.77 768.86 250.84 768.86 250.84 737.44 254.08 737.44 254.08 776.18 250.34 776.18 236.94 745.09 236.87 745.09 236.87 776.18 233.64 776.18 233.64 737.44"/><path d="m287.25,749.11c-.72-5.48-3.63-8.24-7.18-8.24-6.11,0-8.69,7.59-8.69,15.68,0,8.85,2.58,16.23,8.73,16.23,4.49,0,7.07-4.78,7.4-11.18h3.41c-.65,9.66-4.63,15.52-11.1,15.52-7.97,0-11.85-8.9-11.85-20.18s4.24-20.4,12.14-20.4c5.35,0,9.77,4.34,10.56,12.58h-3.41Z"/><polygon points="294.96 737.44 298.38 737.44 298.38 754.1 311.88 754.1 311.88 737.44 315.29 737.44 315.29 776.18 311.88 776.18 311.88 758.44 298.38 758.44 298.38 776.18 294.96 776.18 294.96 737.44"/><path d="m320.7,737.44h12.07c4.81,0,7.79,3.96,7.79,10.14,0,4.67-1.37,8.52-4.45,9.82v.11c2.98.87,3.59,4.18,3.84,7.97.22,3.8.07,8.03,1.51,10.69h-3.8c-.97-1.57-.44-5.75-.94-9.55-.36-3.8-.97-7-4.27-7h-8.33v16.55h-3.41v-38.74Zm10.52,17.85c3.2,0,5.93-1.25,5.93-6.89,0-3.8-1.37-6.62-4.56-6.62h-8.48v13.51h7.11Z"/><rect x="345.26" y="737.44" width="3.41" height="38.74"/><path d="m369.07,748.78c-.4-5.53-2.83-7.92-6.36-7.92-2.87,0-5.75,1.57-5.75,6.62,0,4.78,4.1,5.48,8.23,6.89,4.09,1.41,8.19,3.58,8.19,11.17,0,8.25-5.35,11.56-10.02,11.56-5.75,0-10.6-4.23-10.6-13.67h3.23c0,6.51,3.59,9.33,7.47,9.33,3.09,0,6.5-1.47,6.5-7.05s-4.1-6.24-8.19-7.59c-4.09-1.36-8.22-3.15-8.22-10.26,0-7.87,4.63-11.34,9.3-11.34,5.24,0,9.23,3.74,9.44,12.26h-3.23Z"/><polygon points="383.14 741.78 374.59 741.78 374.59 737.44 395.1 737.44 395.1 741.78 386.55 741.78 386.55 776.18 383.14 776.18 383.14 741.78"/><path d="m408.6,736.52c8.15,0,12.28,9.77,12.28,20.29s-4.13,20.29-12.28,20.29-12.28-9.77-12.28-20.29,4.13-20.29,12.28-20.29m0,36.24c6.25,0,8.87-8.14,8.87-15.95s-2.62-15.95-8.87-15.95-8.87,8.14-8.87,15.95,2.62,15.95,8.87,15.95"/><path d="m58.59,250.54c-.22-.73-5.4-18.07-5.4-32.94,0-19.3,7.27-30.66,21.6-33.77,6.83-1.48,14.15-.08,20.09,3.84,4.36,2.88,9.88,8.34,12.67,18.33l22.23-4.09,4.52,21.94-22.37,4.58,1.59,9.11-7.15,1.25-2.8-16.05,22.15-4.54-1.62-7.87-22.17,4.08-.68-3.53c-1.5-7.73-5.08-13.67-10.36-17.15-4.32-2.85-9.63-3.87-14.56-2.8-10.83,2.35-15.88,10.82-15.88,26.68,0,13.78,5.04,30.68,5.09,30.85l-6.95,2.09Z"/><path d="m462.74,255.65l-51.07-12.06.55-17.4-26.75-7.73,7.86-25.69,25.28,6.93c8.31-17.25,21.5-24.19,38.32-20.08,17.57,4.3,22.89,22.6,15.83,54.41-4.61,20.77-7.32,21.2-9.29,21.51l-.71.11Zm-43.63-17.75l42.16,9.96c.84-1.92,2.36-6.22,4.4-15.4,6.13-27.59,2.71-42.57-10.47-45.79-14.21-3.47-24.41,2.67-31.22,18.76l-1.24,2.92-24.53-6.73-3.64,11.91,25.09,7.25-.55,17.11Z"/><path d="m82.51,247.62c-2.48,0-4.87-.85-6.83-2.44-2.26-1.83-3.68-4.43-3.98-7.31l-2.34-22.26c-.3-2.88.54-5.72,2.37-7.98,1.84-2.26,4.43-3.68,7.31-3.98l.57-.06c2.88-.31,5.72.54,7.98,2.38s3.68,4.43,3.98,7.31l2.34,22.26c.3,2.88-.54,5.72-2.38,7.98-1.83,2.26-4.43,3.67-7.31,3.98l-.57.06c-.39.04-.77.06-1.15.06m-1.76-36.83c-.12,0-.25,0-.38.02l-.57.06c-.96.1-1.82.57-2.44,1.33-.61.76-.89,1.7-.79,2.65l2.34,22.26c.1.96.57,1.82,1.33,2.44.76.61,1.7.9,2.66.79l.57-.06c.96-.1,1.82-.57,2.44-1.33.61-.76.89-1.7.79-2.66l-2.34-22.26c-.1-.95-.57-1.82-1.33-2.44-.66-.53-1.46-.81-2.28-.81"/><path d="m441.76,250.64c-.68,0-1.37-.06-2.05-.2l-1.47-.28c-2.85-.55-5.31-2.17-6.95-4.58-1.64-2.41-2.24-5.3-1.7-8.15l5.21-27.3c.54-2.85,2.17-5.31,4.58-6.95,2.41-1.64,5.3-2.24,8.15-1.69l1.47.28c2.85.54,5.32,2.17,6.95,4.58,1.64,2.41,2.24,5.31,1.7,8.15l-5.21,27.3c-.55,2.85-2.17,5.32-4.58,6.95-1.83,1.25-3.94,1.89-6.1,1.89m-2.16-7.6l1.47.28c.94.18,1.91-.02,2.71-.57.81-.55,1.35-1.37,1.53-2.32l5.21-27.3c.18-.95-.02-1.91-.57-2.71-.55-.8-1.37-1.35-2.32-1.53l-1.47-.28c-.95-.18-1.9.02-2.71.57-.8.55-1.35,1.37-1.53,2.31l-5.21,27.3c-.18.95.02,1.91.57,2.71.55.81,1.37,1.35,2.32,1.53"/><path d="m389.19,234.95l-7.25-.28c.2-5.29,7.89-31.17,11.23-42.18l-18.7-3.77c-2.44,6.43-9.87,19.12-30.37,17.88-24.63-1.5-31.59-20.99-33.4-28.89h-24.29c-3.58,9.31-13.63,23.58-32.04,23.58h-.38c-20.45,0-31.43-16.56-34.88-22.9l-21.58,1.99c-.85,8.97-5.73,22.57-20.32,26.07-8.67,2.08-16.01,1.25-21.83-2.51-5.3-3.41-7.97-8.44-9.23-11.72l-17.61,2.2,7.6,39.02-7.12,1.39-9.08-46.64,31.7-3.96.64,3.34s1.43,6.71,7.1,10.32c4.08,2.6,9.51,3.11,16.14,1.51,15.12-3.64,14.9-22.08,14.9-22.27l-.07-3.38,33.17-3.06,1.05,2.4c.38.86,9.59,21.1,29.74,20.94,19.94-.2,25.95-20.73,26.01-20.94l.74-2.64h35.97l.31,3.29c.1.97,2.68,24.13,27.21,25.61,20.77,1.27,23.74-14.77,23.86-15.45l.63-3.69,33.42,6.74-1.17,3.82c-4.59,14.97-11.93,40.2-12.08,44.16"/><path d="m126.77,191.15l-7.08-41.64,29.53-3.22.74,3.12c.16.65,4.16,16.22,20.23,14,16.64-2.3,18.71-20.35,18.72-20.53l.32-3.03,32.95-2.22.75,2.91c.27,1.03,6.92,25.32,29.95,24.79,23.22-.53,30.33-29.85,30.4-30.14l.65-2.8h29.22l.5,3.03c.05.27,4.92,27.46,27.29,31.48,18.49,3.31,26.15-17.59,26.46-18.49l1.05-2.95,31.7,6.18-10.12,36.78-6.99-1.92,8.04-29.24-18.01-3.51c-4.45,9.75-15.59,23.5-33.4,20.29-22.73-4.08-30.41-26.18-32.5-34.4h-17.61c-2.62,8.38-12.25,32.38-36.51,32.94-.31,0-.62.01-.92.01-22.83,0-32.42-19.76-35.26-27.33l-21.25,1.43c-1.92,8.67-8.67,21.72-24.44,23.91-15.92,2.22-24.26-8.47-27.31-16.42l-15.73,1.71,5.79,34.05-7.15,1.22Z"/><path d="m385.95,152.63l-7.09-1.54,5.52-25.44-12.01-3.1c-2.57,6.73-10.37,20.06-31.86,19.5-18.37-.5-25.11-17.98-26.52-29.62h-25.83c-2.05,10.72-10.35,26.65-31.22,26.9-20.68.24-30.02-14.5-32.83-24.58l-28.8,1.97c-.38,8.31-4.52,20.25-18.76,22.85-6.05,1.11-11.34.06-15.72-3.11-5.53-4-8.12-10.46-9.26-14.49l-16.64,2.57,3.49,26.5-7.19.95-4.42-33.53,30.65-4.73.5,3.65c.01.08,1.35,9.04,7.15,13.22,2.75,1.98,6.06,2.58,10.14,1.84,14.11-2.58,12.82-18.09,12.76-18.75l-.35-3.7,3.71-.27,38.68-2.65.51,3.29c.15.89,3.78,22.01,26.29,21.71,22.29-.26,24.46-22.62,24.54-23.57l.28-3.32h3.33s35.84-.01,35.84-.01l.12,3.51c.04,1.04,1.16,25.61,19.74,26.11,22.25.54,25.52-16.51,25.64-17.24l.67-3.88,25.93,6.69-6.99,32.26Z"/><path d="m161.78,129.35l-5.81-4.34c.61-.82,15.34-20.37,36.44-35.05,19.84-13.8,79.81-29.53,134.99-5.33,25.56,11.21,40.09,22.51,43.19,33.58,1.7,6.07-.77,9.83-1.06,10.24l-5.93-4.17h0s.84-1.6-.12-4.56c-1.62-4.95-8.83-15.22-38.98-28.45-51.92-22.77-109.84-7.94-127.94,4.64-20.1,13.98-34.63,33.25-34.77,33.44"/><polygon points="241.17 77.97 233.92 77.97 233.92 70.72 212.16 70.72 212.16 19.95 233.92 19.95 233.92 0 284.7 0 284.7 19.95 306.46 19.95 306.46 70.72 284.7 70.72 284.7 76.16 277.44 76.16 277.44 63.47 299.2 63.47 299.2 27.2 277.44 27.2 277.44 7.25 241.17 7.25 241.17 27.2 219.42 27.2 219.42 63.47 241.17 63.47 241.17 77.97"/><rect x="255.68" y="18.13" width="9.07" height="67.09"/><rect x="232.11" y="38.08" width="56.21" height="9.07"/><path d="m274.27,96.11c0,7.76-6.29,14.05-14.05,14.05s-14.05-6.29-14.05-14.05,6.29-14.05,14.05-14.05,14.05,6.29,14.05,14.05"/><path d="m384.23,151.73l-2.1-6.94,85.29-25.82c.14-.88.14-2.46-.73-4.87-1.09-3.06-3.41-4.01-4.47-4.29l-74.08,24.28-2.26-6.89,75.63-24.78.72.06c3.06.24,8.88,2.44,11.3,9.19,2.81,7.9-.03,11.89-.63,12.61l-.69.83-87.97,26.63Z"/><polygon points="428.8 177.5 416.12 138.36 423.02 136.13 433.43 168.25 443.29 164.87 436.63 145.33 459.08 137.99 466.35 157.19 475.28 154.36 463.93 124.06 470.72 121.51 484.75 158.96 461.99 166.19 454.75 147.04 445.86 149.94 452.5 169.39 428.8 177.5"/><path d="m130.54,155.32l-80.45-24.79-.69-.83c-.6-.72-3.45-4.71-.63-12.61,2.42-6.76,8.24-8.96,11.3-9.19l.72-.06.69.22,73.33,24.03-2.26,6.89-72.48-23.75c-1.08.28-3.37,1.22-4.47,4.29-.86,2.4-.86,4.04-.76,4.87l77.84,23.98-2.14,6.93Z"/><path d="m347.65,458.77h-28.19l-1.06-1.06c-.43-.43-4.14-4.32-3.67-9.93.35-4.11,2.81-7.82,7.31-11l.69-.49.84-.14c1.78-.29,7.21-1.74,8.72-4.5,2.08-3.8,8.5-19.22,11.61-26.83l.69-1.69,25.04-6.4,14.47,13.97-36.45,48.07Zm-24.88-7.25h21.28l30.39-40.07-6.93-6.69-17.58,4.49c-2.2,5.35-8.9,21.54-11.27,25.87-2.98,5.47-10.33,7.46-13.04,8.02-1.67,1.29-3.46,3.13-3.66,5.2-.12,1.26.35,2.39.81,3.18"/><polygon points="93.49 182.94 69.8 174.83 76.43 155.38 67.54 152.48 60.31 171.63 37.54 164.4 51.58 126.96 58.37 129.5 47.01 159.8 55.95 162.63 63.21 143.43 85.67 150.77 79 170.31 88.87 173.69 99.27 141.57 106.17 143.8 93.49 182.94"/><path d="m433.39,380.8h-25.38v-7.25h25.38c1.8-.02,10.88-.69,10.88-12.01v-16.6c-.02-1.57-.52-15.42-14.46-15.42-11.33,0-14.83-.16-14.98-.17l-1.83-.08-1.02-1.53c-.54-.79-5.71-7.8-15.44-3.71-6.73,2.83-9.94,5.34-11.38,6.8,2.87,3.69,10.24,11.33,21.14,9.72,2.52-.37,5.5-2.54,6.35-3.26l1.03-.89h1.35s5.8.03,12.58.04c9.77.02,9.41,6.96,9.41,15v1.04c0,9.82.34,15.75-11.22,16.09-3.47.1-21.85.4-26.91.48l-1.62,1.47-7.36-8.58,7.78-.12c.24,0,24.34-.38,28.22-.49,3.21-.09,3.47-.48,3.56-.56.63-.7.3-5.27.3-8.28v-1.05c0-3.02.35-6.78-.21-7.49,0,0-.27-.25-1.79-.25-4.93,0-9.45-.02-11.59-.03-1.72,1.29-5.13,3.51-8.86,4.06-18.8,2.78-29.29-14.32-29.73-15.05l-.84-1.41.51-1.57c.47-1.47,3.05-6.7,16.47-12.35,11.03-4.64,19.3.47,23.1,4.81,1.99.05,5.98.11,12.99.11,17.17,0,21.71,14.83,21.71,22.68v16.6c0,5.83-1.74,10.52-5.17,13.95-5.25,5.25-12.56,5.32-12.96,5.32"/><path d="m314.71,347.15l-6.91-2.22c1.09-3.39,6.89-20.47,14.15-24.14,6.74-3.41,26.8-3.15,30.74-3.05l.5.05s2.34.21,6.23-1.26c2.73-1.12,15.86-13.37,26.97-24.55-.17-.01-.37-.02-.6-.02l-59.72-.02c-.63-.05-16.03-1.21-24.43,12.87-9.67,16.19-20.84,33.43-20.96,33.6l-6.08-3.95c.11-.17,11.21-17.3,20.82-33.37,10.35-17.34,28.91-16.54,31.14-16.39h59.24c4.07,0,6.1,1.68,7.08,3.09,1.55,2.22,1.36,5.03.72,6.76l-.27.73-.55.56c-5.85,5.92-25.36,25.42-30.79,27.46-5.07,1.92-8.53,1.78-9.62,1.68-8.48-.19-23.19.28-27.14,2.28-3.03,1.53-7.82,11.52-10.51,19.89"/><rect x="141.44" y="377.17" width="7.25" height="47.15"/><rect x="90.67" y="357.22" width="7.25" height="94.29"/><rect x="184.96" y="357.22" width="7.25" height="94.29"/><path d="m438.07,460.59h-35.2l-1.06-1.06c-.43-.43-4.14-4.32-3.67-9.93.35-4.11,2.81-7.82,7.31-11.01l.5-.36.59-.17c3.29-.94,6.82-2.32,7.8-3.03.21-.44.44-1.47.63-2.67-8.46-2.71-32.92-11.59-47.41-27.26-8.56,3.29-39.01,12.65-105.7,12.16l-24.52,43.33h-26.69l-1.06-1.06c-.43-.43-4.14-4.32-3.67-9.93.35-4.11,2.81-7.82,7.31-11.01l.69-.49.84-.14c1.78-.29,7.21-1.74,8.72-4.5,1.35-2.73,1.3-19,.47-32.49l-.15-2.39,45.29-22.73,5.43-43.77,3.85.79c18.41,3.79,110.69,22.94,118.65,27.53,6.51,3.76,15.63,16.63,22.96,26.97,2.42,3.41,4.51,6.36,6.1,8.41,1.08,1.39,2.28,2.88,3.52,4.41,6.77,8.38,13.76,17.04,13.47,23.82-.28,6.68-4.34,32.42-4.51,33.51l-.48,3.06Zm-31.9-7.25h25.69c1.1-7.14,3.74-24.66,3.95-29.63.17-4.04-7.08-13.02-11.87-18.96-1.27-1.56-2.49-3.08-3.6-4.51-1.69-2.18-3.82-5.19-6.29-8.67-6.18-8.73-15.53-21.92-20.66-24.89-5.27-3.01-70.28-17.15-112.65-25.91l-4.93,39.81-44.48,22.33c.56,10.13,1.2,29.11-1.48,34.02-2.98,5.47-10.33,7.46-13.04,8.02-1.69,1.3-3.49,3.15-3.66,5.25-.1,1.23.36,2.36.81,3.13h19.15l24.54-43.37,2.14.02c78.5.89,106.89-12.36,107.17-12.5l2.54-1.23,1.82,2.16c15.39,18.39,48.19,27.76,48.52,27.85l2.79.78-.14,2.89c-.1,2.06-.55,7.13-2.47,9.62-1.7,2.2-6.72,4.07-10.87,5.29-1.71,1.3-3.59,3.17-3.8,5.31-.12,1.26.35,2.39.81,3.18"/><path d="m324.13,313.71c-1.47,0-2.68-1.02-2.72-2.5-.04-1.5,1.15-2.67,2.66-2.71l47.64-1.11,6.06-5.71-49.34,1.15c-1.49.07-2.75-1.15-2.78-2.65-.04-1.5,1.16-2.75,2.66-2.78l56.41-1.3c1.04-.06,2.15.64,2.58,1.68.43,1.04.17,2.24-.65,3.01l-11.96,11.31c-.49.46-1.13.58-1.8.59l-48.68,1.02h-.07Z"/><path d="m222.14,379.29c-1.19,0-2.35-.58-3.05-1.65-1.09-1.68-.61-3.92,1.07-5.01l22.62-14.7,1.12-22.93c.1-2,1.8-3.53,3.8-3.45,2,.1,3.54,1.8,3.45,3.8l-1.3,26.63-25.74,16.73c-.61.4-1.3.59-1.97.59"/><polyline points="224.63 295.57 213.52 296.93 217.82 299.39"/><path d="m217.81,302.11c-.46,0-.92-.12-1.35-.36l-4.3-2.46c-1.02-.58-1.55-1.75-1.32-2.9.23-1.15,1.17-2.02,2.34-2.16l11.11-1.36c1.47-.19,2.85.88,3.03,2.37.18,1.49-.88,2.85-2.37,3.03l-4.48.55c.14.63.05,1.31-.3,1.92-.5.88-1.42,1.37-2.36,1.37"/><path d="m4.53,269.59c-1.87,0-3.62-1.17-4.28-3.03-.83-2.36.41-4.95,2.77-5.78,1.3-.46,131.25-45.8,251.54-45.8s257.97,44.74,259.35,45.19c2.38.78,3.67,3.34,2.89,5.72-.78,2.38-3.33,3.68-5.72,2.89-1.36-.45-137.76-44.74-256.52-44.74S7.32,268.88,6.04,269.34c-.5.18-1.01.26-1.51.26"/><path d="m273.23,668.93l-.72-4.44c-2.33-14.29-8.07-118.56-7.83-125.76l.12-3.55,25.34.31v-7.81h-70.72v7.68l27.02.15.11,3.49c.61,19.71-.62,119.87-.67,124.12l-.07,5.73-5.15-2.51c-14.16-6.9-38.14-15.64-68.5-26.71-11.16-4.06-23.25-8.48-36.18-13.27l-2.39-.89.29-26.74c-18.16,1.88-32.4,13.2-32.55,13.32l-1.57,1.26-1.9-.66c-4.6-1.6-9.68-3.19-15.05-4.89-4.24-1.33-8.51-2.68-12.58-4.04-25.02-8.35-37.58-34.68-37.58-47.07v-261.87l2.44-.85c1.13-.39,114.54-39.11,219.85-39.11s225.51,38.21,226.71,38.6l2.52.81v254.57c.46,3.56,3.83,35.74-21.3,46.23-7.94,3.31-24.84,9.85-45.19,17.49l-1.96.73-1.62-1.33c-5.86-4.81-22.06-16.62-33.48-19.71l-.47,34.64-2.27.89c-34.4,13.44-99.8,39.27-100.46,39.53l-4.19,1.65Zm-1.25-126.41c.56,18.19,4.79,94.12,7.12,116.29,14.86-5.86,64.29-25.37,93.86-36.93l.51-37.9,3.86.3c13.69,1.07,33.82,16.1,39.72,20.72,19.15-7.2,35.52-13.54,43.02-16.67,20.93-8.73,16.92-38.48,16.88-38.77l-.04-.51v-249.49c-17.79-5.46-126.24-37.47-221.97-37.47s-198.04,32.31-215.04,37.9v256.67c0,10.22,11.2,33.04,32.62,40.18,4.04,1.35,8.27,2.68,12.47,4,4.52,1.43,9.17,2.89,13.41,4.32,4.92-3.55,20.25-13.43,39.05-13.94l3.76-.1-.32,29.31c12.01,4.45,23.29,8.56,33.74,12.37,27.18,9.92,49.29,17.97,64.05,24.61.24-20.67,1.04-92.39.69-114.7l-27.2-.14v-22.15h85.23v22.41l-25.41-.31Z"/><path d="m261.05,716.18l-2-1.24c-.58-.36-60.15-36.66-216.91-90.16C12.73,614.75,0,583.85,0,570.3v-306l2.42-.85c1.3-.46,131.51-45.75,252.01-45.75s258.48,44.69,259.87,45.14l2.5.81v302.94c.43,3.72,4.01,41.28-24.52,53.45-6.93,2.95-21.68,8.2-40.34,14.85-55.96,19.92-149.63,53.27-188.94,79.96l-1.94,1.32ZM7.25,269.47v300.83c0,10.28,10.71,38.57,37.23,47.62,141.82,48.4,204.69,82.93,216.35,89.66,41.1-26.97,133.26-59.79,188.66-79.51,18.56-6.6,33.21-11.82,39.93-14.69,24.4-10.41,20.19-45.75,20.14-46.1l-.02-.46v-297.87c-19.17-6.01-144.71-43.99-255.11-43.99S25.58,263.31,7.25,269.47"/><polygon points="144.67 372.34 140.4 370.68 132.1 375.25 144.87 380.2 195.84 357.38 195.84 452.18 145.21 420.12 85.23 452.68 85.23 357.08 118.32 369.91 119.68 362.65 77.97 346.49 77.97 464.87 144.93 428.52 203.09 465.36 203.09 346.19 144.67 372.34"/><path d="m280.56,334.28c-11.1-15.13-26.95-37.37-29.84-42.65.98-1.51,3.81-4.48,6.66-6.95,1.24-1.07,1.6-2.85.89-4.32-.71-1.48-2.33-2.28-3.94-1.98-.09.02-9.29,1.73-23.7.43-15.52-1.39-23.62.08-27.07,4.91-1.73,2.43-9.55,9.21-18.59,11.58-5.72,1.5-9.13,3.59-10.42,6.38-.63,1.37-.61,2.57-.45,3.41v8.61c0,2,1.62,3.62,3.63,3.62h19.67l.09,1.82h-13.19c-4.93,0-10.43,4.69-10.43,11.42s6.04,8.99,9.23,9.45c.24.03.48.05.72.03.04,0,.91-.05,2.38-.12l.59,47.72c.01,1.27.69,2.42,1.76,3.06l-.54-33.93,5.62-2.34-.18-14.78c6.16-.17,14.08-.24,20.01.22,11.25.88,14.65-3.57,15.67-6.07l9.96-9.79c1.43-1.41,1.45-3.7.05-5.13-1.41-1.43-3.7-1.45-5.13-.04l-10.6,10.42c-.51.5-.85,1.13-1,1.82-.33.6-2.44,2.03-8.38,1.57-10.8-.85-27.15-.03-30.16.13-.76-.18-2.74-.78-2.74-2.21,0-2.91,2.41-4.17,3.18-4.17h17c.99,0,1.94-.41,2.63-1.13.68-.72,1.04-1.69.99-2.68l-.45-9.07c-.1-1.93-1.69-3.45-3.62-3.45h-19.5v-5.53c0-.42,1.94-1.32,5.45-2.24,10.77-2.82,20.07-10.76,22.66-14.38.75-1.05,4.26-3.36,20.53-1.9,6.16.55,11.42.59,15.55.44-1.53,2.06-2.3,3.81-2.3,5.25,0,1.35,0,3.86,30.64,45.69l-4.78,38.54-41.75,23.26-27.93-11.75.02,7.88,26.73,11.25c.45.19.93.28,1.41.28.61,0,1.22-.16,1.76-.46l44.9-25.02c1.01-.57,1.69-1.58,1.83-2.72l5.18-41.79c.12-.92-.13-1.84-.67-2.59Z"/></g></svg>