<svg xmlns="http://www.w3.org/2000/svg" xmlns:xlink="http://www.w3.org/1999/xlink" width="368.232" height="377.578" viewBox="0 0 368.232 377.578">
  <defs>
    <clipPath id="clip-path">
      <rect id="Rectangle_101" data-name="Rectangle 101" width="289.027" height="268.728" fill="#fff"/>
    </clipPath>
  </defs>
  <g id="Group_211" data-name="Group 211" transform="matrix(-0.438, -0.899, 0.899, -0.438, 126.701, 377.579)" opacity="0.1">
    <g id="Group_210" data-name="Group 210" transform="translate(0 0)" clip-path="url(#clip-path)">
      <path id="Path_458" data-name="Path 458" d="M38.543,12.8C12.274,15.361,0,29.377,0,29.377s14.309,11.608,39.894,9.181a67.462,67.462,0,0,0,40.56-18.694S64.813,10.272,38.543,12.8" transform="translate(0 229.829)" fill="#fff"/>
      <path id="Path_459" data-name="Path 459" d="M25.7,23.493C4.031,38.566.175,56.79.175,56.79S18.321,59.942,39.462,45.3A67.315,67.315,0,0,0,65.713,9.183S47.39,8.459,25.7,23.493" transform="translate(3.251 170.47)" fill="#fff"/>
      <path id="Path_460" data-name="Path 460" d="M42.415,10.983C16.125,13.313,3.734,27.231,3.734,27.231S17.926,38.956,43.55,36.744a67.313,67.313,0,0,0,40.7-18.322S68.7,8.693,42.415,10.983" transform="translate(69.36 197.524)" fill="#fff"/>
      <path id="Path_461" data-name="Path 461" d="M43.434,10.5C17.673,16.231,7.2,31.637,7.2,31.637s15.582,9.788,40.7,4.248a67.417,67.417,0,0,0,38-23.471S69.214,4.8,43.434,10.5" transform="translate(133.741 155.67)" fill="#fff"/>
      <path id="Path_462" data-name="Path 462" d="M42.372,16.853c-25.487,14.7-31.555,34.491-31.555,34.491s19.79,5.129,44.651-9.142C80.348,27.952,88.1,4.657,88.1,4.657s-20.221-2.466-45.728,12.2" transform="translate(200.927 83.599)" fill="#fff"/>
      <path id="Path_463" data-name="Path 463" d="M14.752,38.553C-.321,63.844,5.611,84.672,5.611,84.672s21.4-4.62,36.155-29.226A69.853,69.853,0,0,0,50.125,6.039S29.884,13.282,14.752,38.553" transform="translate(82.849 112.168)" fill="#fff"/>
      <path id="Path_464" data-name="Path 464" d="M18.425,36.062C3.352,61.353,9.284,82.181,9.284,82.181s21.4-4.62,36.155-29.226A69.853,69.853,0,0,0,53.8,3.548S33.557,10.791,18.425,36.062" transform="translate(151.076 65.897)" fill="#fff"/>
      <path id="Path_465" data-name="Path 465" d="M22.41,32.514C7.337,57.805,13.269,78.633,13.269,78.633s21.4-4.62,36.155-29.226A69.853,69.853,0,0,0,57.783,0S37.542,7.243,22.41,32.514" transform="translate(225.098 -0.008)" fill="#fff"/>
    </g>
  </g>
</svg>
