<?xml version="1.0" encoding="UTF-8"?><svg id="Layer_1" xmlns="http://www.w3.org/2000/svg" xmlns:xlink="http://www.w3.org/1999/xlink" viewBox="0 0 1080 1080"><defs><style>.cls-1{fill:none;}.cls-2{clip-path:url(#clippath);}.cls-3{fill:#051a33;}.cls-4{fill:#fff;}.cls-5{fill:#d5bc28;}</style><clipPath id="clippath"><rect class="cls-1" x="257.23" y="103.76" width="565.53" height="872.48"/></clipPath></defs><g class="cls-2"><g id="Group_747"><path id="Path_625" class="cls-5" d="m515.88,455.25l-11.59,11.38s-.71,5.82-13.35,4.83c-10.98-.52-21.98-.46-32.95.17,0,0-6.68-.94-6.68-6.41-.13-4.35,3.11-8.07,7.44-8.52h18.59l-.5-9.92h-25.28v-9.91s-1.73-3.59,8.93-6.38c8.72-2.48,16.55-7.4,22.56-14.19,2.48-3.47,9.4-5.21,26.02-3.72,8.99.97,18.07.79,27.02-.54,0,0-8.93,7.72-8.93,10.7s33.68,48.88,33.68,48.88l-5.64,45.7-49.1,27.36-40.63-17.1-.7-56.26"/><path id="Path_626" class="cls-3" d="m506.06,548.68c-.53,0-1.05-.11-1.54-.31l-40.63-17.1c-1.45-.61-2.41-2.02-2.43-3.6l-.65-52.17c-1.61.08-2.57.13-2.6.13-.26.02-.53,0-.79-.03-5.46-.47-9.75-4.87-10.09-10.34-.12-6.53,4.89-12.02,11.41-12.49h14.42l-.09-1.99h-21.51c-2.19,0-3.96-1.77-3.97-3.96v-9.4c-.24-1.26-.08-2.57.47-3.73,1.41-3.06,5.14-5.34,11.4-6.98,7.83-2.24,14.87-6.63,20.33-12.67,3.76-5.28,12.63-6.88,29.61-5.37,8.62.92,17.33.77,25.92-.47,2.15-.41,4.23,1.01,4.64,3.16.26,1.39-.23,2.81-1.29,3.73-2.7,2.26-5.14,4.81-7.28,7.6,3.16,5.78,20.49,30.08,32.63,46.64.6.81.86,1.82.74,2.82l-5.67,45.7c-.15,1.26-.9,2.36-2,2.98l-49.1,27.36c-.59.33-1.26.5-1.93.5m-36.69-23.72l36.45,15.34,45.64-25.45,5.23-42.14c-33.51-45.74-33.51-48.48-33.51-49.96.23-2.13,1.11-4.13,2.52-5.74-5.67.2-11.35.05-17-.47-17.79-1.6-21.62.94-22.45,2.07-6.55,7.54-15.16,13.01-24.77,15.73-3.84,1.01-5.96,1.99-5.96,2.45v6.02h21.32c2.11,0,3.85,1.65,3.96,3.76l.47,9.92c.11,2.18-1.56,4.04-3.74,4.15-.07,0-.14,0-.22,0h-18.59c-2.11.48-3.57,2.4-3.47,4.56,0,1.57,2.17,2.23,2.99,2.42,10.98-.64,22-.68,32.98-.14,6.5.5,8.81-1.06,9.17-1.72.16-.76.54-1.45,1.1-1.99l11.59-11.39c1.46-1.64,3.96-1.78,5.6-.32,1.64,1.46,1.78,3.96.32,5.6-.12.13-.24.25-.37.36l-10.89,10.71c-1.11,2.73-4.83,7.6-17.14,6.64-6.48-.51-15.13-.43-21.88-.24l.65,49.83Zm31.76-58.8-.77-.03v.03s0,0,0-.03"/><path id="Path_627" class="cls-4" d="m344.85,797.72l-6.39-4.7c.6-.82,14.91-20.16,27.89-28.53l4.3,6.66c-11.75,7.59-25.66,26.38-25.8,26.57"/><path id="Path_628" class="cls-4" d="m736.02,801.22c-.19-.25-18.64-25.19-32.57-34.06l4.26-6.69c15.18,9.67,33.9,34.97,34.69,36.05l-6.38,4.7Z"/><path id="Path_629" class="cls-4" d="m538.57,663.48c-15.75,0-28.07-7.6-28.07-17.29s12.33-17.29,28.07-17.29,28.07,7.6,28.07,17.29-12.33,17.29-28.07,17.29m0-26.64c-11.53,0-20.14,4.94-20.14,9.36s8.62,9.36,20.14,9.36,20.14-4.94,20.14-9.36-8.62-9.36-20.14-9.36"/><path id="Path_630" class="cls-4" d="m702.69,716.37l-35.95-20-37.37,18.44,10.01-37.99-35.79-28.03h46.43l15.76-35.18,16.1,35.42h46.01l-36.19,27.76,10.98,39.57Zm-35.72-28.95l23,12.8-7.35-26.43,21.9-16.79h-27.73l-10.94-24.07-10.68,23.82h-28.56l21.78,17.07-6.9,26.19,25.48-12.58Z"/><path id="Path_631" class="cls-4" d="m727.17,976.24h-376.74c-2.19,0-3.97-1.78-3.97-3.97v-77.33c0-2.18,1.76-3.96,3.95-3.97l376.75-1.99h0c2.19,0,3.96,1.78,3.96,3.97v79.33c0,2.19-1.77,3.96-3.96,3.97m-372.79-7.93h368.82v-71.37l-368.82,1.94v69.43Z"/><path id="Path_632" class="cls-4" d="m727.93,915.08c-2.6,0-4.7-2.1-4.7-4.7v-14.74l-65.43-26.53v23.86h-7.93v-29.26c0-1.87,1.1-3.57,2.82-4.32l135.04-59.07c2.36-1.07,5.15-.02,6.22,2.34.62,1.36.55,2.94-.18,4.24l-27.88,51.52,27.16,24.21c1.95,1.72,2.13,4.69.41,6.63-.5.56-1.12,1-1.82,1.27l-61.97,24.28c-.55.21-1.13.32-1.72.32m-63.92-52.01l64.18,26.01c1.78.72,2.95,2.45,2.95,4.37v12.19l52.69-20.64-25.15-22.41c-1.63-1.45-2.05-3.84-1.01-5.76l24.64-45.52-118.3,51.76Zm99.94-6.4h0"/><path id="Path_633" class="cls-4" d="m350.45,915.41c-.5,0-.99-.09-1.45-.27l-62.75-24.64c-2.42-.93-3.64-3.65-2.71-6.07.27-.72.72-1.35,1.3-1.86l27.36-24.19-28.01-51.47c-1.27-2.26-.46-5.13,1.8-6.4,1.3-.73,2.88-.8,4.24-.18l135.14,59.26c1.43.64,2.35,2.06,2.35,3.63v29.75h-7.89v-23.86l-65.44,26.53v15.83c0,2.19-1.77,3.96-3.96,3.96h0m-56.4-30.4l52.42,20.61v-12.69c0-1.62.98-3.07,2.48-3.68l64.65-26.21-117.92-51.7,25.02,45.99c.89,1.62.53,3.64-.86,4.87l-25.8,22.8Zm-3.92,3.46h0m-.96-5.39h0"/><path id="Path_634" class="cls-4" d="m376.92,909.16c8.93,0,13.43,10.68,13.43,22.18s-4.51,22.19-13.43,22.19-13.43-10.68-13.43-22.19,4.52-22.18,13.43-22.18m0,39.63c6.83,0,9.7-8.9,9.7-17.45s-2.87-17.44-9.7-17.44-9.7,8.9-9.7,17.44,2.87,17.45,9.7,17.45"/><path id="Path_635" class="cls-4" d="m394.78,910.17h5.1l8.84,35.6,8.88-35.6h5.1v42.36h-3.53v-35.25h-.08l-8.76,35.25h-3.18l-8.76-35.25h-.08v35.25h-3.53v-42.36Z"/><path id="Path_636" class="cls-4" d="m428.66,910.17h3.97l14.77,34.36h.08v-34.36h3.53v42.36h-4.08l-14.65-34h-.08v34h-3.53v-42.36Z"/><rect id="Rectangle_300" class="cls-4" x="457.01" y="910.16" width="3.73" height="42.36"/><path id="Path_637" class="cls-4" d="m474.44,910.17h4.12l10.96,42.36h-4.13l-3.06-12.76h-11.87l-3.14,12.76h-3.84l10.97-42.36Zm-2.79,24.86h9.5l-4.68-19.74h-.08l-4.75,19.74Z"/><rect id="Rectangle_301" class="cls-4" x="502.94" y="910.16" width="3.73" height="42.36"/><path id="Path_638" class="cls-4" d="m512.72,910.17h3.97l14.77,34.36h.08v-34.36h3.53v42.36h-4.08l-14.65-34h-.08v34h-3.53v-42.36Z"/><path id="Path_639" class="cls-4" d="m571.35,922.92c-.78-5.99-3.97-9.01-7.85-9.01-6.68,0-9.5,8.31-9.5,17.15,0,9.67,2.82,17.74,9.54,17.74,4.91,0,7.74-5.23,8.09-12.22h3.73c-.71,10.56-5.06,16.97-12.14,16.97-8.71,0-12.96-9.73-12.96-22.09s4.63-22.31,13.28-22.31c5.85,0,10.68,4.75,11.54,13.76l-3.73.02Z"/><path id="Path_640" class="cls-4" d="m579.78,910.17h3.73v18.21h14.78v-18.21h3.73v42.36h-3.73v-19.4h-14.77v19.4h-3.73v-42.36Z"/><path id="Path_641" class="cls-4" d="m607.91,910.16h13.2c5.26,0,8.52,4.33,8.52,11.09,0,5.1-1.49,9.32-4.87,10.74v.12c3.26.94,3.92,4.57,4.2,8.72-.2,3.97.36,7.94,1.65,11.69h-4.15c-.72-3.43-1.07-6.94-1.02-10.44-.39-4.15-1.06-7.65-4.67-7.65h-9.08v18.1h-3.76v-42.37Zm11.51,19.52c3.5,0,6.48-1.36,6.48-7.52,0-4.15-1.49-7.24-4.99-7.24h-9.24v14.77h7.75Z"/><rect id="Rectangle_302" class="cls-4" x="634.78" y="910.16" width="3.73" height="42.36"/><path id="Path_642" class="cls-4" d="m660.82,922.57c-.43-6.05-3.1-8.66-6.95-8.66-3.14,0-6.29,1.72-6.29,7.24,0,5.22,4.48,5.99,9,7.52,6.74,2.12,10.49,9.29,8.37,16.03-1.47,4.69-5.51,8.12-10.37,8.83-6.29,0-11.59-4.63-11.59-14.96h3.53c0,7.12,3.92,10.21,8.17,10.21,3.37,0,7.11-1.6,7.11-7.71s-4.48-6.82-8.93-8.31c-5.47-.82-9.39-5.7-9-11.21,0-8.6,5.07-12.4,10.17-12.4,5.73,0,10.09,4.09,10.34,13.41h-3.56Z"/><path id="Path_643" class="cls-4" d="m676.2,914.91h-9.35v-4.75h22.43v4.75h-9.35v37.6h-3.73v-37.6Z"/><path id="Path_644" class="cls-4" d="m704.04,909.16c8.93,0,13.43,10.68,13.43,22.18s-4.51,22.19-13.43,22.19-13.43-10.68-13.43-22.19,4.52-22.18,13.43-22.18m0,39.63c6.83,0,9.7-8.9,9.7-17.45s-2.87-17.44-9.7-17.44-9.7,8.9-9.7,17.44,2.87,17.45,9.7,17.45"/><path id="Path_645" class="cls-4" d="m321.3,377.73c-3.46-11.72-5.44-23.82-5.9-36.02,0-21.1,7.95-33.53,23.61-36.92,7.59-1.59,15.5-.08,21.97,4.2,6.93,4.75,11.86,11.88,13.86,20.04l24.3-4.47,4.94,23.97-24.44,5.01,1.74,9.97-7.82,1.36-3.06-17.55,24.22-4.96-1.77-8.61-24.24,4.46-.75-3.86c-1.06-7.54-5.16-14.31-11.33-18.76-4.68-3.11-10.42-4.21-15.92-3.06-11.84,2.57-17.36,11.83-17.36,29.17.48,11.43,2.35,22.76,5.56,33.74l-7.61,2.3Z"/><path id="Path_646" class="cls-4" d="m763.25,383.32l-55.85-13.18.6-19.03-29.26-8.46,8.59-28.09,27.64,7.58c9.09-18.87,23.5-26.45,41.9-21.95,19.21,4.7,25.03,24.71,17.31,59.5-5.04,22.72-7.99,23.18-10.17,23.5l-.77.15Zm-47.71-19.4l46.1,10.89c2.1-5.46,3.71-11.1,4.81-16.84,6.7-30.17,2.96-46.53-11.44-50.07-15.54-3.8-26.7,2.92-34.15,20.52l-1.35,3.2-26.82-7.36-3.98,13.02,27.44,7.93-.6,18.7Z"/><path id="Path_647" class="cls-4" d="m347.46,374.53c-6.08-.02-11.17-4.61-11.83-10.66l-2.55-24.35c-.67-6.53,4.06-12.38,10.59-13.08l.62-.07c6.53-.67,12.38,4.06,13.08,10.59l2.55,24.34c.67,6.53-4.06,12.38-10.59,13.08l-.62.07c-.42.04-.84.07-1.25.07m-1.92-40.27h-.41l-.62.07c-2.17.24-3.75,2.18-3.53,4.36l2.55,24.35c.24,2.17,2.19,3.75,4.36,3.53l.62-.07c2.17-.24,3.75-2.18,3.53-4.36l-2.56-24.34c-.22-2.02-1.92-3.54-3.95-3.55"/><path id="Path_648" class="cls-4" d="m740.3,377.84c-.75,0-1.5-.07-2.24-.22l-1.6-.3c-6.44-1.25-10.67-7.47-9.46-13.92l5.7-29.85c1.24-6.45,7.47-10.68,13.92-9.45l1.6.31c6.45,1.24,10.67,7.47,9.46,13.92l-5.7,29.85c-1.09,5.6-5.98,9.65-11.68,9.67m-2.35-8.31l1.6.31c2.15.4,4.22-1.01,4.64-3.15l5.7-29.85c.4-2.15-1.01-4.22-3.15-4.63l-1.6-.31c-2.15-.4-4.21,1.01-4.63,3.15l-5.7,29.85c-.4,2.15,1.01,4.22,3.15,4.64"/><path id="Path_649" class="cls-4" d="m682.82,360.67l-7.92-.31c.22-5.78,8.63-34.09,12.28-46.13l-20.45-4.13c-2.67,7.05-10.81,20.91-33.22,19.56-18.07-.68-33.25-13.81-36.52-31.59h-26.56c-3.91,10.18-14.9,25.78-35.03,25.78h-.44c-22.36,0-34.37-18.11-38.15-25.04l-23.6,2.18c-.94,9.81-6.27,24.68-22.22,28.52-7.99,2.47-16.65,1.48-23.87-2.74-4.63-3.1-8.16-7.59-10.1-12.81l-19.27,2.41,8.31,42.67-7.79,1.51-9.93-51,34.67-4.33.7,3.65c1.13,4.58,3.89,8.59,7.77,11.28,5.41,2.95,11.79,3.55,17.65,1.65,16.53-3.98,16.3-24.15,16.3-24.35l-.08-3.69,36.27-3.35,1.15,2.62c.41.94,10.49,23.07,32.51,22.9,21.81-.22,28.38-22.67,28.44-22.9l.81-2.89h39.33l.34,3.6c1.58,15.43,14.25,27.36,29.75,28.01,22.71,1.41,25.96-16.15,26.09-16.92l.69-4.03,36.55,7.37-1.28,4.18c-5.01,16.37-13.04,43.96-13.21,48.29"/><path id="Path_650" class="cls-4" d="m395.86,312.78l-7.75-45.53,32.29-3.53.81,3.41c.17.71,4.55,17.73,22.12,15.31,18.19-2.52,20.46-22.25,20.48-22.45l.34-3.32,36.04-2.43.82,3.19c.29,1.12,7.57,27.69,32.75,27.1,25.38-.58,33.17-32.64,33.24-32.96l.71-3.06h31.96l.55,3.29c.05.3,5.38,30.03,29.84,34.42,20.21,3.61,28.59-19.24,28.94-20.21l1.15-3.23,34.66,6.75-11.07,40.22-7.65-2.1,8.8-31.96-19.7-3.84c-4.86,10.66-17.05,25.69-36.52,22.18-24.86-4.46-33.25-28.63-35.54-37.6h-19.27c-2.87,9.16-13.4,35.41-39.92,36.02h-1.01c-24.96,0-35.45-21.62-38.54-29.89l-23.24,1.57c-2.46,13.5-13.17,23.98-26.73,26.14-13.01,2.13-25.65-5.47-29.86-17.95l-17.2,1.88,6.32,37.24-7.82,1.33Z"/><path id="Path_651" class="cls-4" d="m679.29,270.66l-7.75-1.68,6.03-27.82-13.14-3.39c-2.82,7.36-11.34,21.94-34.84,21.32-20.09-.55-27.46-19.66-29-32.38h-28.25c-2.45,16.95-17.02,29.49-34.14,29.41-16.81.63-31.77-10.57-35.89-26.87l-31.49,2.15c.21,12.23-8.48,22.81-20.52,24.99-5.95,1.34-12.2.1-17.19-3.41-5.01-4.03-8.57-9.6-10.12-15.84l-18.2,2.82,3.82,28.98-7.86,1.03-4.84-36.66,33.52-5.17.55,4c.85,5.58,3.62,10.69,7.83,14.46,3.24,2.21,7.27,2.94,11.08,2.01,15.43-2.82,14.02-19.78,13.95-20.5l-.38-4.05,4.06-.29,42.3-2.9.56,3.6c2.25,14.02,14.56,24.19,28.75,23.74,24.38-.28,26.74-24.73,26.83-25.77l.31-3.63h42.84l.13,3.83c.04,1.14,1.26,28.01,21.59,28.56,24.34.59,27.9-18.06,28.04-18.85l.73-4.23,28.35,7.32-7.66,35.24Z"/><path id="Path_652" class="cls-4" d="m434.15,245.2l-6.35-4.75c11.38-14.62,24.8-27.53,39.85-38.33,21.7-15.09,87.27-32.29,147.62-5.83,27.96,12.26,43.84,24.61,47.23,36.72,1.27,3.73.84,7.82-1.16,11.2l-6.49-4.56h0c.58-1.62.53-3.41-.14-5-1.77-5.41-9.66-16.65-42.63-31.1-56.77-24.91-120.12-8.69-139.9,5.08-14.32,10.35-27.12,22.66-38.02,36.56"/><path id="Path_653" class="cls-4" d="m520.96,189.02h-7.93v-7.93h-23.79v-55.52h23.79v-21.81h55.53v21.81h23.79v55.52h-23.79v5.95h-7.93v-13.88h23.79v-39.66h-23.79v-21.81h-39.66v21.81h-23.79v39.66h23.79v15.86Z"/><rect id="Rectangle_303" class="cls-4" x="536.83" y="123.59" width="9.92" height="73.37"/><rect id="Rectangle_304" class="cls-4" x="511.05" y="145.4" width="61.47" height="9.92"/><path id="Path_654" class="cls-4" d="m557.15,208.85c0,8.49-6.88,15.37-15.37,15.37s-15.37-6.88-15.37-15.37c0-8.49,6.88-15.37,15.37-15.37s15.37,6.88,15.37,15.37h0"/><path id="Path_655" class="cls-4" d="m677.39,269.68l-2.3-7.59,93.26-28.23c.18-1.82-.09-3.65-.79-5.33-.73-2.29-2.57-4.06-4.89-4.7l-81.01,26.55-2.47-7.52,82.72-27.1.79.06c5.72.67,10.53,4.59,12.36,10.05,3.08,8.63-.04,13-.69,13.79l-.76.91-96.22,29.11Z"/><path id="Path_656" class="cls-4" d="m726.13,297.85l-13.86-42.77,7.54-2.44,11.38,35.12,10.81-3.69-7.29-21.37,24.56-8.02,7.94,21,9.77-3.1-12.42-33.13,7.43-2.79,15.35,40.95-24.91,7.9-7.92-20.94-9.71,3.17,7.25,21.27-25.92,8.84Z"/><path id="Path_657" class="cls-4" d="m399.98,273.61l-87.98-27.11-.75-.9c-.66-.78-3.76-5.17-.69-13.79,1.82-5.46,6.64-9.38,12.36-10.05l.78-.06.75.24,80.19,26.28-2.47,7.52-79.26-25.95c-2.33.63-4.17,2.4-4.89,4.7-.68,1.69-.97,3.51-.83,5.33l85.12,26.23-2.34,7.57Z"/><path id="Path_658" class="cls-5" d="m671.96,553.28l-36.54,48.18h-27.21s-8.43-8.43,3.47-16.85c0,0,9.4-1.49,12.39-6.94s12.89-29.75,12.89-29.75l23.29-5.94,11.72,11.3Z"/><path id="Path_659" class="cls-3" d="m637.39,605.43h-30.81l-1.16-1.16c-2.79-2.91-4.24-6.84-4.01-10.86.7-5.01,3.64-9.44,7.99-12.03l.76-.54.92-.15c1.94-.31,7.89-1.88,9.53-4.92,2.27-4.15,9.3-21.01,12.69-29.34l.76-1.85,27.38-6.99,15.83,15.28-39.86,52.57Zm-27.21-7.93h23.27l33.23-43.81-7.58-7.32-19.22,4.91c-2.4,5.85-9.74,23.55-12.32,28.29-3.38,4.72-8.52,7.88-14.26,8.77-2.02,1.3-3.46,3.34-4,5.68-.07,1.22.23,2.44.88,3.47"/><path id="Path_660" class="cls-4" d="m359.47,303.8l-25.92-8.87,7.26-21.27-9.72-3.17-7.91,20.94-24.91-7.9,15.36-40.95,7.43,2.78-12.41,33.14,9.78,3.1,7.94-21,24.56,8.02-7.29,21.37,10.81,3.69,11.38-35.12,7.54,2.44-13.89,42.79Z"/><path id="Path_661" class="cls-5" d="m346.46,488.45v116.99l69.4-37.67,59.48,37.67v-116.99l-59.82,26.79-69.07-26.79Z"/><path id="Path_662" class="cls-3" d="m479.32,612.63l-63.61-40.28-73.21,39.74v-129.44l72.93,28.26,63.89-28.59v130.31Zm-128.88-118.4v104.53l65.59-35.6,55.37,35.06v-103.67l-55.75,24.95-65.21-25.27Z"/><path id="Path_663" class="cls-5" d="m703.39,516.2h27.76c8.79,0,15.91-7.13,15.91-15.92,0-.39-.01-.79-.04-1.18v-18.16s0-20.83-19.78-20.83c-12.43,0-16.18-.18-16.18-.18-4.95-6.86-14.11-9.19-21.73-5.51-14.13,5.95-15.77,11.06-15.77,11.06,0,0,10.38,17.26,28.55,14.57,3.29-.76,6.35-2.3,8.93-4.48,0,0,6.71.03,14.14.03,7,0,6.71,3.76,6.71,13.58,0,11.4-.25,13.38-8.79,13.63-4.33.13-30.91.54-30.91.54l2.55,2.97"/><path id="Path_664" class="cls-3" d="m731.15,520.17h-27.76v-7.93h27.76c6.49.13,11.85-5.02,11.98-11.51.01-.55-.02-1.1-.08-1.65v-18.15c0-1.72-.57-16.86-15.82-16.86-12.38,0-16.22-.17-16.38-.18l-2-.09-1.11-1.68c-3.86-5.34-11.03-7.06-16.89-4.05-4.58,1.67-8.8,4.19-12.45,7.43,5.23,7.45,14.05,11.51,23.11,10.63,2.56-.64,4.93-1.86,6.94-3.57l1.12-.97h1.48s6.34.03,13.76.03c10.69,0,10.29,7.61,10.29,16.41v1.14c0,10.74.37,17.22-12.27,17.59-3.79.11-23.89.44-29.42.52l-1.77,1.61-8.05-9.4,8.5-.14c.27,0,26.61-.41,30.86-.54,3.52-.1,3.8-.52,3.89-.61.51-2.99.62-6.03.32-9.05v-1.15c.28-2.73.2-5.48-.23-8.19,0,0-.3-.27-1.96-.28-5.4,0-10.34,0-12.69-.03-2.84,2.22-6.16,3.74-9.69,4.44-20.56,3.04-32.03-15.66-32.51-16.45l-.92-1.54.56-1.71c.51-1.61,3.33-7.33,18.01-13.51,8.65-4.09,18.96-1.94,25.26,5.26,2.18.05,6.53.12,14.2.12,18.78,0,23.74,16.22,23.74,24.8v18.17c.29,5.64-1.75,11.15-5.64,15.25-3.86,3.6-8.9,5.67-14.18,5.82"/><path id="Path_665" class="cls-5" d="m597.59,482.16s6.62-20.6,13.48-24.07,31.74-2.92,31.74-2.92c3.03.19,6.07-.35,8.85-1.58,5.58-2.11,32.25-29.11,32.25-29.11,0,0,2.01-5.44-4.81-5.44h-64.94c-12.32-.66-24.02,5.47-30.48,15.98-10.66,17.86-22.84,36.61-22.84,36.61"/><path id="Path_666" class="cls-3" d="m601.37,483.37l-7.55-2.43c1.19-3.7,7.52-22.39,15.47-26.4,7.37-3.73,29.3-3.44,33.61-3.34l.54.05c2.34.02,4.66-.45,6.82-1.38,2.98-1.22,17.34-14.62,29.5-26.85-.18,0-.4-.03-.66-.03h-65.33c-10.81-.57-21.07,4.83-26.72,14.07-10.57,17.71-22.8,36.56-22.92,36.74l-6.66-4.32c.12-.18,12.26-18.92,22.76-36.49,7.17-11.8,20.26-18.7,34.05-17.92h64.78c2.99-.27,5.91,1,7.75,3.38,1.41,2.21,1.7,4.95.78,7.4l-.3.8-.6.61c-6.4,6.48-27.73,27.8-33.67,30.03-3.32,1.39-6.92,2.02-10.52,1.83-9.27-.21-25.38.31-29.69,2.49-3.29,1.68-8.55,12.6-11.49,21.75"/><path id="Path_667" class="cls-5" d="m436.75,502.4l-18.46-10.89c-1.57-.93-3.39-1.35-5.21-1.22l-19.54,1.41c-3.24.23-5.86,2.75-6.21,5.98-.69,6.2-1.14,15.71,2.12,18.53,4.13,3.58,12.47-2.22,15.13-4.23.53-.41,1.23-.51,1.86-.27l8.38,3.24c.48.19,1.01.18,1.48-.04l20.29-9.08c.97-.43,1.4-1.57.97-2.53-.16-.36-.43-.67-.78-.87"/><path id="Path_668" class="cls-3" d="m392.72,521.32c-2.16.05-4.26-.71-5.89-2.12-2.31-2-5.17-6.47-3.46-21.97.57-5.13,4.72-9.12,9.87-9.49l19.55-1.41c2.63-.19,5.25.42,7.52,1.76l18.46,10.89c2.8,1.65,3.73,5.26,2.08,8.06-.62,1.05-1.55,1.88-2.66,2.38l-20.29,9.08c-1.43.64-3.06.68-4.53.11l-7.31-2.82c-3.81,3.1-8.44,5.03-13.32,5.54m20.99-27.09h-.36l-19.54,1.41c-1.33.1-2.41,1.14-2.55,2.47-1.18,10.61.16,14.5.77,15.1s4.47-.1,10.13-4.41c1.63-1.24,3.78-1.55,5.69-.82l7.58,2.93,15.88-7.11-15.04-8.87c-.77-.46-1.66-.7-2.56-.7"/><rect id="Rectangle_305" class="cls-3" x="411.9" y="516.2" width="7.93" height="51.55"/><rect id="Rectangle_306" class="cls-3" x="356.38" y="494.39" width="7.93" height="103.11"/><rect id="Rectangle_307" class="cls-3" x="459.49" y="494.39" width="7.93" height="103.11"/><path id="Path_669" class="cls-5" d="m732.88,603.45h-33.46s-8.43-8.43,3.47-16.85c3.73-.94,7.29-2.49,10.52-4.59,1.17-2.61,1.81-5.43,1.88-8.3,0,0-37.18-10.41-55.03-31.73,0,0-30.73,15.04-118.97,14.07l-26.81,47.4h-25.23s-8.43-8.43,3.47-16.85c0,0,9.4-1.49,12.39-6.94,2.99-5.45.99-37.68.99-37.68l49.08-24.64,5.64-45.7s119.98,24.69,128.57,29.65c8.59,4.96,23.68,28.76,30.62,37.69,6.94,8.93,18.05,21.11,17.75,28.27s-4.89,36.19-4.89,36.19"/><path id="Path_670" class="cls-3" d="m736.28,607.42h-38.49l-1.16-1.16c-2.79-2.91-4.24-6.84-4.01-10.86.7-5.01,3.64-9.44,7.99-12.04l.55-.39.65-.18c2.96-.77,5.82-1.87,8.53-3.29.34-.95.57-1.93.69-2.92-9.25-2.97-36-12.69-51.85-29.81-9.36,3.6-42.65,13.84-115.58,13.3l-26.79,47.38h-29.19l-1.16-1.16c-2.79-2.91-4.24-6.84-4.01-10.86.7-5.01,3.64-9.44,7.99-12.04l.76-.53.92-.15c1.94-.31,7.89-1.9,9.53-4.92,1.48-2.98,1.41-20.77.52-35.53l-.16-2.61,49.52-24.86,5.93-47.86,4.23.86c20.14,4.15,121.05,25.08,129.75,30.11,7.12,4.11,17.1,18.18,25.1,29.5,2.65,3.73,4.93,6.96,6.67,9.19,1.18,1.52,2.49,3.15,3.84,4.82,7.4,9.16,15.04,18.64,14.73,26.05-.31,7.3-4.74,35.45-4.93,36.66l-.56,3.31Zm-34.88-7.93h28.09c1.2-7.81,4.09-26.96,4.32-32.4.18-4.42-7.74-14.24-12.98-20.73-1.39-1.71-2.73-3.37-3.94-4.93-1.85-2.38-4.18-5.67-6.88-9.48-6.76-9.55-16.98-23.97-22.59-27.21-5.77-3.29-76.86-18.75-123.18-28.33l-5.4,43.54-48.64,24.44c.61,11.08,1.31,31.83-1.62,37.2-3.38,4.72-8.52,7.88-14.26,8.77-2.04,1.31-3.48,3.37-4,5.74-.06,1.2.25,2.4.88,3.42h20.94l26.84-47.43,2.35.03c85.84.98,116.89-13.52,117.2-13.67l2.78-1.34,1.99,2.35c16.84,20.1,52.7,30.35,53.06,30.46l3.05.86-.16,3.15c0,3.68-.93,7.29-2.7,10.52-3.43,2.87-7.51,4.86-11.89,5.79-2.09,1.31-3.58,3.4-4.15,5.8-.07,1.22.24,2.44.88,3.47"/><path id="Path_671" class="cls-5" d="m616.31,431.93l61.69-1.41-13.08,12.37-53.24,1.28"/><path id="Path_672" class="cls-3" d="m611.68,446.8c-1.56.09-2.89-1.1-2.97-2.66,0-.03,0-.05,0-.08-.03-1.61,1.25-2.93,2.85-2.97.02,0,.03,0,.05,0l52.09-1.21,6.63-6.25-53.95,1.25c-1.64.09-3.04-1.16-3.13-2.8s1.16-3.04,2.8-3.13c.06,0,.13,0,.19,0l61.68-1.41c1.23-.02,2.34.71,2.82,1.84.47,1.14.18,2.45-.71,3.29l-13.08,12.37c-.55.46-1.26.69-1.97.65l-53.23,1.12h-.07Z"/><path id="Path_673" class="cls-5" d="m500.14,514.55l26.44-17.18,1.33-27.1"/><path id="Path_674" class="cls-3" d="m500.14,518.52c-2.19,0-3.97-1.78-3.97-3.97,0-1.34.68-2.59,1.8-3.32l24.74-16.08,1.22-25.07c.11-2.19,1.97-3.87,4.16-3.76,2.18.11,3.87,1.96,3.76,4.15l-1.41,29.14-28.14,18.29c-.64.42-1.39.64-2.16.64"/><path id="Path_675" class="cls-5" d="m502.87,426.97l-12.14,1.49,4.7,2.68"/><path id="Path_676" class="cls-3" d="m495.42,434.12c-.52,0-1.02-.14-1.47-.39l-4.7-2.68c-1.43-.81-1.92-2.63-1.11-4.06.47-.82,1.29-1.36,2.22-1.48l12.14-1.49c1.62-.25,3.14.87,3.39,2.49.25,1.62-.87,3.14-2.49,3.39-.06,0-.12.02-.18.02l-4.9.6c.34,1.61-.68,3.19-2.29,3.53-.21.04-.41.07-.62.07"/><path id="Path_677" class="cls-4" d="m262.19,398.57c-2.74.02-4.97-2.18-4.99-4.92-.01-2.12,1.32-4.01,3.32-4.71,1.41-.5,143.53-50.08,275.06-50.08s282.09,48.92,283.6,49.41c2.54,1.02,3.77,3.91,2.74,6.45-.93,2.31-3.43,3.57-5.84,2.95-1.49-.47-150.65-48.92-280.51-48.92s-270.36,49.05-271.74,49.54c-.53.19-1.09.28-1.65.28"/><path id="Path_678" class="cls-4" d="m556.01,835.25l-.79-4.86c-2.55-15.62-8.82-129.64-8.56-137.52l.13-3.88,27.71.34v-8.54h-77.31v8.4l29.54.16.12,3.82c.67,21.55-.68,131.08-.74,135.73l-.08,6.26-5.64-2.74c-15.49-7.54-41.71-17.1-74.9-29.21-12.22-4.45-25.43-9.27-39.56-14.51l-2.62-.97.31-29.24c-12.91,1.74-25.16,6.76-35.59,14.57l-1.71,1.38-2.08-.72c-5.03-1.75-10.58-3.49-16.45-5.34-4.63-1.45-9.31-2.93-13.76-4.41-27.35-9.13-41.09-37.92-41.09-51.47v-286.36l2.67-.94c1.24-.42,125.25-42.77,240.41-42.77s246.59,41.78,247.91,42.2l2.75.88v278.37c.5,3.89,4.19,39.08-23.29,50.55-8.69,3.62-27.17,10.77-49.42,19.12l-2.14.8-1.77-1.45c-6.41-5.25-24.12-18.18-36.61-21.55l-.51,37.88-2.49.97c-37.6,14.7-109.14,42.94-109.86,43.24l-4.58,1.8Zm-1.36-138.23c.61,19.89,5.25,102.93,7.78,127.17,16.25-6.42,70.3-27.73,102.64-40.39l.56-41.44,4.23.32c14.96,1.17,36.98,17.61,43.43,22.66,20.94-7.87,38.84-14.81,47.05-18.23,22.88-9.55,18.5-42.07,18.45-42.4l-.04-.56v-272.82c-19.46-5.97-138.05-40.97-242.73-40.97s-216.56,35.34-235.15,41.45v280.67c0,11.18,12.25,36.12,35.67,43.94,4.41,1.48,9.05,2.93,13.63,4.38,4.94,1.56,10.03,3.16,14.67,4.73,12.49-9.04,27.3-14.33,42.7-15.24l4.12-.11-.35,32.05c13.16,4.86,25.46,9.36,36.9,13.53,29.73,10.84,53.9,19.66,70.03,26.91.27-22.6,1.13-101.05.75-125.42l-29.75-.16v-24.22h93.2v24.51l-27.78-.35Z"/><path id="Path_679" class="cls-4" d="m542.7,886.92l-2.19-1.35c-.64-.39-65.8-40.09-237.19-98.59-32.17-10.97-46.08-44.77-46.08-59.58v-334.62l2.65-.94c1.41-.5,143.82-50.02,275.58-50.02s282.66,48.88,284.17,49.35l2.74.89v331.29c.47,4.07,4.39,45.12-26.79,58.45-7.58,3.23-23.7,8.97-44.11,16.24-61.19,21.78-163.62,58.25-206.61,87.42l-2.15,1.45Zm-277.53-488.49v328.97c0,11.24,11.71,42.18,40.72,52.08,155.08,52.92,223.83,90.68,236.58,98.04,44.94-29.5,145.7-65.38,206.31-86.95,20.29-7.22,36.31-12.93,43.67-16.06,26.68-11.38,22.09-50.02,22.02-50.41l-.03-.5v-325.71c-20.96-6.58-158.25-48.1-278.97-48.1s-250.25,41.94-270.3,48.67"/></g></g></svg>